<?xml version="1.0" standalone="no"?>
<!DOCTYPE svg PUBLIC "-//W3C//DTD SVG 20010904//EN"
 "http://www.w3.org/TR/2001/REC-SVG-20010904/DTD/svg10.dtd">
<svg version="1.0" xmlns="http://www.w3.org/2000/svg"
 width="530.000000pt" height="530.000000pt" viewBox="0 0 530.000000 530.000000"
 preserveAspectRatio="xMidYMid meet">
<metadata>
Created by potrace 1.14, written by Peter Selinger 2001-2017
</metadata>
<g transform="translate(0.000000,530.000000) scale(0.100000,-0.100000)"
fill="#000000" stroke="none">
<path d="M70 5259 c24 -22 105 -97 179 -167 74 -70 166 -156 205 -192 38 -36
90 -85 115 -108 25 -24 90 -85 145 -135 54 -51 118 -110 141 -132 23 -22 93
-87 155 -145 62 -58 119 -111 126 -117 9 -10 123 -13 477 -13 l465 -1 -1 -296
0 -296 100 -96 c56 -53 154 -145 219 -206 64 -60 138 -130 164 -155 26 -25
100 -94 165 -155 64 -60 141 -132 170 -160 29 -27 114 -108 190 -180 76 -71
168 -158 204 -192 36 -34 67 -60 70 -57 3 2 5 406 5 897 l1 892 958 5 958 5
-107 100 c-59 55 -142 132 -183 172 -42 39 -92 86 -111 103 -45 41 -230 214
-308 288 -34 31 -111 104 -173 162 -62 58 -140 131 -173 162 l-61 57 -2070 1
-2070 0 45 -41z m4136 -137 c45 -42 128 -120 184 -172 56 -52 123 -115 150
-140 111 -105 290 -272 349 -326 93 -85 131 -123 131 -129 0 -3 -395 -5 -879
-5 l-879 0 1 -830 c0 -457 -2 -832 -4 -834 -2 -3 -45 35 -95 82 -81 78 -213
203 -448 423 -43 41 -109 103 -147 139 -37 36 -119 112 -180 170 -62 58 -134
126 -161 152 l-49 46 0 326 0 326 -494 0 -494 0 -28 26 c-83 76 -251 234 -283
264 -33 31 -208 195 -300 280 -19 18 -69 64 -111 104 -41 39 -96 90 -121 113
-25 23 -49 46 -52 52 -4 6 614 10 1911 10 l1918 -1 81 -76z"/>
<path d="M2079 3058 c-1 -117 -1 -294 1 -303 1 -5 1 -14 0 -20 -1 -8 -1 -30 1
-110 0 -5 -1 -100 -2 -210 0 -110 0 -204 1 -210 1 -5 2 -14 1 -20 -1 -5 -2
-59 -1 -120 0 -60 1 -116 0 -122 0 -23 0 -103 1 -115 0 -7 0 -51 0 -98 -1
-139 -1 -205 0 -222 0 -7 0 -67 -1 -133 -1 -66 -1 -122 0 -125 1 -3 3 -16 4
-28 2 -13 8 -27 13 -30 6 -4 78 -70 159 -148 82 -78 168 -159 191 -180 22 -21
101 -96 175 -165 73 -69 151 -143 173 -163 22 -21 105 -99 185 -174 79 -75
180 -171 224 -212 44 -41 97 -92 118 -112 21 -21 39 -35 39 -30 1 4 2 431 3
950 l1 943 -124 117 c-152 143 -154 144 -331 312 -78 74 -159 151 -180 170
-20 19 -95 90 -166 157 -71 66 -148 138 -170 160 -95 88 -288 269 -300 281
-12 11 -14 5 -15 -40z m292 -358 c73 -69 154 -145 180 -170 26 -25 104 -99
174 -165 71 -66 149 -140 174 -163 165 -156 301 -284 330 -311 l35 -32 0 -806
c1 -443 -1 -806 -4 -808 -6 -3 -55 42 -294 268 -77 73 -171 161 -209 197 -39
36 -91 85 -117 110 -98 94 -231 219 -343 324 l-117 109 0 814 0 815 29 -29
c15 -15 88 -84 162 -153z"/>
</g>
</svg>
